<svg xmlns="http://www.w3.org/2000/svg" width="68" height="22" viewBox="0 0 68 22">
    <path fill="#E1251B" fill-rule="evenodd" d="M12.839 6.56l1.986-.36v-.06c.06.42.12.9.12 1.38 0 .6-.06 1.14-.18 1.62-.662.84-1.685 1.32-2.829 1.38-1.684 0-3.189-.66-3.73-2.82-.18-.06-.361-.06-.542-.06-.541 0-.962.18-1.383.36-.542.36-.963 1.02-.963 1.74 0 .3 0 .54.12.78.24.66.722 1.14 1.324 1.38l-.722 2.04h-.06a8.179 8.179 0 0 1-2.467-1.56c-.18-.42-.241-.84-.241-1.32 0-.66.18-1.32.481-1.86.843-1.56 2.166-2.52 4.272-1.92.422-.48.662-1.08.722-1.8 0-1.02-.722-1.86-1.684-1.98-.18-.06-.361-.06-.542-.06-.481 0-.963.18-1.324.48L3.814 2.3A6.91 6.91 0 0 1 6.52.86c1.083.24 1.986.9 2.527 1.8.843 1.5 1.023 3.12-.541 4.68.24.6.662 1.14 1.203 1.5.301.18.662.3 1.023.3.662 0 1.203-.3 1.564-.78.361-.36.602-.9.602-1.44 0-.12-.06-.24-.06-.36zm-1.625.3c0 .06 2.347-2.34-.18-3.84l-.482-1.5L11.816.8l.361 1.02.12.48c.422.24.722.54.963.96.18.3.3.66.3 1.08 0 .66-.24 1.2-.661 1.62-.361.48-.963.84-1.685.9zM6.341 5.18s-3.19-.84-3.25 2.16L2.07 8.42.805 7.7l.722-.84.301-.36c.06-.48.18-.9.421-1.32.361-.66 1.083-1.08 1.926-1.08.18 0 .36 0 .541.06.662.12 1.264.48 1.625 1.02zm4.392 6.84l1.504.48v1.44l-1.083-.24-.481-.12c-.421.18-.842.36-1.324.36a2.376 2.376 0 0 1-2.106-1.68c-.12-.3-.18-.6-.18-.9 0-.42.12-.78.24-1.08 0 0 .843 3.18 3.43 1.74zM27.761 1.773L29.778.8V11.12c0 1.061.32 1.695.953 1.9-.312.591-.845.885-1.599.885-.915 0-1.371-.633-1.371-1.897V1.773zm5.283 6.853h4.244c-.138-1.263-.84-1.893-2.097-1.893-1.153 0-1.866.63-2.147 1.893zm6.1 1.512H32.97c.039.686.275 1.22.711 1.602.435.382 1.022.573 1.758.573.28 0 .348.032.779-.067.351-.081.773-.29 1.248-.113.253.084.432.332.58.548.155.209.275.45.275.45-.71.577-1.771.863-3.18.863-1.316 0-2.36-.386-3.126-1.157-.766-.768-1.151-1.844-1.151-3.22 0-1.358.42-2.459 1.263-3.301.843-.842 1.852-1.263 3.032-1.263 1.252 0 2.258.372 3.018 1.118.757.747 1.137 1.695 1.137 2.848 0 .248-.057.623-.17 1.119zM20.493 8.626h4.246c-.14-1.263-.842-1.893-2.1-1.893-1.15 0-1.867.63-2.146 1.893zm6.101 1.512H20.42c.037.686.275 1.22.71 1.602.436.382 1.024.573 1.76.573.28 0 .348.032.779-.067.35-.081.772-.29 1.247-.113.252.084.429.332.578.548.156.209.277.45.277.45-.71.577-1.77.863-3.18.863-1.318 0-2.361-.386-3.127-1.157-.767-.768-1.15-1.844-1.15-3.22 0-1.358.42-2.459 1.263-3.301.843-.842 1.853-1.263 3.03-1.263 1.255 0 2.26.372 3.018 1.118.76.747 1.14 1.695 1.14 2.848 0 .248-.057.623-.17 1.119zm19.185 3.71s-.45.015-.692-.36l-2.306-3.542-.969 1.023v2.88h-2.017V1.798L41.812.87v7.667l2.881-3.308h2.43L44.202 8.5l3.519 5.349h-1.94zm3.5-7.012h-2.444l1.444-1.62h1V3.46l2.018-.74v2.495h2.371v1.62h-2.37v3.772c0 .62.097 1.054.29 1.31.193.254.532.38 1.016.38s.935-.13 1.356-.395v1.854c-.468.16-1.136.241-2.002.241-.86 0-1.522-.245-1.985-.729-.463-.485-.693-1.178-.693-2.074V6.836zm10.988-1.04c-.32.548-.109 1.397-.109 1.397-.231-.166-.789-.47-1.417-.445a1.992 1.992 0 0 0-1.393.654c-.363.425-.544.942-.544 1.554v4.91h-2.017V5.249h2.017v.789c.564-.634 1.267-.98 2.203-.988a3.83 3.83 0 0 1 1.61.308s-.148.092-.35.439zm4.868 4.787V9.78a4.249 4.249 0 0 0-.773-.106c-1.594 0-2.39.523-2.39 1.564 0 .771.448 1.157 1.348 1.157 1.21 0 1.815-.605 1.815-1.812zm2.01.612c0 1.15.233 1.872.696 2.166-.169.29-.354.456-.558.534-.229.092-.426.113-.704.102a1.17 1.17 0 0 1-.78-.322 1.637 1.637 0 0 1-.469-.7c-.184.3-.504.545-.958.736-.453.191-.93.286-1.424.286-.93 0-1.662-.233-2.195-.697-.532-.463-.798-1.121-.798-1.974 0-.998.375-1.78 1.125-2.342.752-.566 1.818-.846 3.2-.846.236 0 .517.039.841.12 0-1.012-.644-1.52-1.93-1.52-.605 0-1.129.08-1.578.24l-.278.116c-.014.008-.032.014-.05.021l.002-.003-.005.003s-.598-1.479.862-1.9c0 0 .562-.169 1.515-.169 1.318 0 1.953.308 2.565.905.614.602.921 1.734.921 3.4v1.844zM37.329 21.968a.616.616 0 0 1-.46-.188.656.656 0 0 1-.184-.479c0-.194.062-.354.185-.48a.616.616 0 0 1 .459-.188c.183 0 .335.063.455.189.12.125.18.285.18.479s-.06.354-.18.48a.604.604 0 0 1-.455.187zm3.467 0c-.286 0-.553-.048-.802-.145a1.822 1.822 0 0 1-.648-.428 1.984 1.984 0 0 1-.43-.693 2.64 2.64 0 0 1-.153-.933c0-.348.056-.66.171-.933.114-.274.27-.505.463-.693.195-.188.42-.333.674-.433.255-.1.523-.15.802-.15.275 0 .512.046.71.137.196.092.372.203.527.334l-.48.643a1.624 1.624 0 0 0-.34-.227.816.816 0 0 0-.365-.082c-.343 0-.62.127-.832.381-.212.254-.318.595-.318 1.023 0 .422.104.76.313 1.014a1 1 0 0 0 .811.38c.166 0 .323-.034.468-.106a2.12 2.12 0 0 0 .4-.252l.403.65c-.2.171-.42.3-.657.385a2.097 2.097 0 0 1-.717.128zm3.726-.804a.842.842 0 0 0 .729-.381c.177-.254.266-.592.266-1.014 0-.428-.089-.769-.266-1.023a.843.843 0 0 0-.73-.38.833.833 0 0 0-.725.38c-.174.254-.262.595-.262 1.023 0 .422.088.76.262 1.014a.832.832 0 0 0 .726.38zm0 .804c-.263 0-.515-.048-.755-.145a1.886 1.886 0 0 1-.64-.428 2.053 2.053 0 0 1-.442-.694 2.517 2.517 0 0 1-.163-.932c0-.348.054-.66.163-.933.109-.274.256-.505.442-.693a1.935 1.935 0 0 1 1.395-.582c.263 0 .516.05.759.15.244.1.457.243.64.432.183.188.33.42.442.693.111.274.167.585.167.933 0 .348-.056.659-.167.932-.112.275-.26.505-.442.694a1.83 1.83 0 0 1-.64.428 2.039 2.039 0 0 1-.76.145zm2.986-.102v-4.203h.816l.068.574h.035c.177-.189.37-.348.579-.48.209-.13.445-.196.708-.196.309 0 .556.066.743.196.185.132.327.317.425.557.2-.217.409-.397.626-.54a1.3 1.3 0 0 1 .73-.213c.446 0 .775.144.987.432.211.288.317.7.317 1.236v2.637h-.996v-2.508c0-.348-.053-.594-.158-.736-.106-.143-.268-.214-.485-.214-.263 0-.558.174-.884.522v2.936h-.987v-2.508c0-.348-.054-.594-.159-.736-.106-.143-.27-.214-.494-.214-.263 0-.558.174-.884.522v2.936h-.987zm7.794.102a.616.616 0 0 1-.46-.188.656.656 0 0 1-.184-.479c0-.194.061-.354.185-.48a.616.616 0 0 1 .459-.188c.183 0 .334.063.455.189.12.125.18.285.18.479s-.06.354-.18.48a.604.604 0 0 1-.455.187zm1.802-.102v-4.203h.815l.069.574h.034c.177-.189.37-.348.58-.48.209-.13.444-.196.707-.196.31 0 .557.066.743.196.186.132.327.317.425.557.2-.217.409-.397.626-.54.218-.142.46-.213.73-.213.446 0 .775.144.987.432.212.288.317.7.317 1.236v2.637h-.995v-2.508c0-.348-.053-.594-.16-.736-.105-.143-.266-.214-.484-.214-.263 0-.557.174-.884.522v2.936h-.987v-2.508c0-.348-.053-.594-.158-.736-.107-.143-.272-.214-.494-.214-.263 0-.558.174-.884.522v2.936h-.987zm6.729 0l1.339-2.191-1.253-2.012h1.064l.472.796.194.356c.065.122.129.24.193.355h.034c.051-.115.105-.233.162-.355.058-.123.112-.242.164-.356l.403-.796h1.022l-1.245 2.123 1.339 2.08h-1.065l-.514-.83-.21-.378a11.423 11.423 0 0 0-.22-.367h-.034c-.063.12-.125.24-.184.363l-.185.381-.446.83h-1.03z"/>
</svg>
